<svg xmlns="http://www.w3.org/2000/svg" width="1024" height="1024" viewBox="0 0 1024 1024">
  <defs>
    <linearGradient id="bg" x1="0" y1="0" x2="1" y2="1">
      <stop offset="0%" stop-color="#d4403a"/>
      <stop offset="100%" stop-color="#b82e28"/>
    </linearGradient>
    <clipPath id="rounded">
      <rect width="1024" height="1024" rx="192" ry="192"/>
    </clipPath>
    <filter id="letterShadow" x="-20%" y="-20%" width="140%" height="140%">
      <feGaussianBlur in="SourceAlpha" stdDeviation="8"/>
      <feOffset dx="0" dy="6"/>
      <feComponentTransfer><feFuncA type="linear" slope="0.18"/></feComponentTransfer>
      <feMerge><feMergeNode/><feMergeNode in="SourceGraphic"/></feMerge>
    </filter>
  </defs>
  <g clip-path="url(#rounded)">
    <rect width="1024" height="1024" fill="url(#bg)"/>
    <rect width="1024" height="6" fill="rgba(255,255,255,0.18)"/>
    <rect y="1018" width="1024" height="6" fill="rgba(0,0,0,0.12)"/>
    <g filter="url(#letterShadow)">
      <path d="M378.600 0L231.600 0L232.800-6L240-9Q260.400-18.600 249.600-36.600L249.600-36.600L150-206.400L318-358.200Q327.600-366.600 326.700-375Q325.800-383.400 315-387.600L315-387.600L309.600-390L310.200-396L404.400-396L403.200-390L396.600-387.600Q376.200-380.400 362.700-372.600Q349.200-364.800 333.600-351L333.600-351L213-241.800L337.200-40.800Q351-18 374.400-7.800L374.400-7.800L379.800-6L378.600 0ZM143.400 0L0 0L1.200-6L11.400-10.200Q32.400-18 36.600-40.800L36.600-40.800L68.400-210Q75-242.400 81.600-282.300Q88.200-322.200 94.200-357L94.200-357Q97.800-378 78-387L78-387L70.800-390L72-396L217.200-396L216-390L202.800-385.800Q181.200-378 177-355.800L177-355.800L141.600-162.600Q136.800-138 130.500-103.500Q124.200-69 118.800-39L118.800-39Q115.200-17.400 135.600-9.600L135.600-9.600L144.600-6L143.400 0Z" fill="#ffffff" transform="translate(304, 730)"/>
    </g>
  </g>
</svg>
