<svg xmlns="http://www.w3.org/2000/svg" width="1024" height="1024" viewBox="0 0 1024 1024">
  <defs>
    <linearGradient id="bg" x1="0" y1="0" x2="1" y2="1">
      <stop offset="0%" stop-color="#d4403a"/>
      <stop offset="100%" stop-color="#b82e28"/>
    </linearGradient>
    <clipPath id="rounded">
      <rect width="1024" height="1024" rx="192" ry="192"/>
    </clipPath>
    <filter id="letterShadow" x="-20%" y="-20%" width="140%" height="140%">
      <feGaussianBlur in="SourceAlpha" stdDeviation="8"/>
      <feOffset dx="0" dy="6"/>
      <feComponentTransfer><feFuncA type="linear" slope="0.18"/></feComponentTransfer>
      <feMerge><feMergeNode/><feMergeNode in="SourceGraphic"/></feMerge>
    </filter>
  </defs>
  <g clip-path="url(#rounded)">
    <rect width="1024" height="1024" fill="url(#bg)"/>
    <rect width="1024" height="6" fill="rgba(255,255,255,0.18)"/>
    <rect y="1018" width="1024" height="6" fill="rgba(0,0,0,0.12)"/>
    <g filter="url(#letterShadow)">
      <path d="M150 0L1.800 0L3-6L9.600-8.400Q35.400-17.400 40.200-43.200L40.200-43.200L71.400-210Q78-243 84-277.500Q90-312 97.200-354L97.200-354Q101.400-378.600 78-387.600L78-387.600L72-390L73.200-396L204-396Q281.400-396 316.500-366.300Q351.600-336.600 351.600-288L351.600-288Q351.600-253.200 331.500-222.900Q311.400-192.600 270.900-174.300Q230.400-156 169.200-156L169.200-156L142.800-156Q138-132 132.900-102.900Q127.800-73.800 122.400-44.400L122.400-44.400Q118.200-16.800 144-7.800L144-7.800L151.200-6L150 0ZM145.200-168L145.200-168L167.400-168Q213-168 241.200-200.700Q269.400-233.400 269.400-291L269.400-291Q269.400-336 251.400-360Q233.400-384 199.800-384L199.800-384L185.400-384Q175.800-330 165.600-276Q155.400-222 145.200-168Z" fill="#ffffff" transform="translate(157.2, 730)"/>
      <path d="M286.800 0L1.200 0L1.800-6L13.800-10.200Q34.800-17.400 39-39L39-39L71.400-210Q77.400-241.800 84.300-281.100Q91.200-320.400 97.200-355.200L97.200-355.200Q100.800-376.800 79.800-387L79.800-387L72-390L73.200-396L221.400-396L220.800-390L205.800-385.200Q184.200-377.400 180-355.200L180-355.200L147.600-186.600Q142.800-161.400 137.400-130.500Q132-99.600 126.600-68.700Q121.200-37.800 117-12L117-12L181.200-12Q207-12 225.300-21.300Q243.600-30.600 258.600-51L258.600-51L306-116.400L312-116.400L286.800 0Z" fill="#ffffff" transform="translate(512.6, 730)"/>
    </g>
  </g>
</svg>
