<svg xmlns="http://www.w3.org/2000/svg" width="1024" height="1024" viewBox="0 0 1024 1024">
  <defs>
    <linearGradient id="bg" x1="0" y1="0" x2="1" y2="1">
      <stop offset="0%" stop-color="#d4403a"/>
      <stop offset="100%" stop-color="#b82e28"/>
    </linearGradient>
    <clipPath id="rounded">
      <rect width="1024" height="1024" rx="192" ry="192"/>
    </clipPath>
    <filter id="letterShadow" x="-20%" y="-20%" width="140%" height="140%">
      <feGaussianBlur in="SourceAlpha" stdDeviation="8"/>
      <feOffset dx="0" dy="6"/>
      <feComponentTransfer><feFuncA type="linear" slope="0.18"/></feComponentTransfer>
      <feMerge><feMergeNode/><feMergeNode in="SourceGraphic"/></feMerge>
    </filter>
  </defs>
  <g clip-path="url(#rounded)">
    <rect width="1024" height="1024" fill="url(#bg)"/>
    <rect width="1024" height="6" fill="rgba(255,255,255,0.18)"/>
    <rect y="1018" width="1024" height="6" fill="rgba(0,0,0,0.12)"/>
    <g filter="url(#letterShadow)">
      <path d="M94.800 0L44.400 0L44.400-420L182.400-420Q231.600-420 263.400-403.800Q295.200-387.600 310.500-360Q325.800-332.400 325.800-297.600L325.800-297.600Q325.800-263.400 310.800-235.800Q295.800-208.200 264-191.700Q232.200-175.200 182.400-175.200L182.400-175.200L94.800-175.200L94.800 0ZM94.800-378L94.800-217.800L181.200-217.800Q231.600-217.800 252.900-239.100Q274.200-260.400 274.200-297.600L274.200-297.600Q274.200-335.400 252.900-356.700Q231.600-378 181.200-378L181.200-378L94.800-378Z" fill="#ffffff" transform="translate(170.8, 722)"/>
      <path d="M290.400 0L44.400 0L44.400-420L94.800-420L94.800-40.200L290.400-40.200L290.400 0Z" fill="#ffffff" transform="translate(538.2, 722)"/>
    </g>
  </g>
</svg>
