<svg xmlns="http://www.w3.org/2000/svg" width="1024" height="1024" viewBox="0 0 1024 1024">
  <defs>
    <linearGradient id="bg" x1="0" y1="0" x2="1" y2="1">
      <stop offset="0%" stop-color="#3a7fd4"/>
      <stop offset="100%" stop-color="#2860b8"/>
    </linearGradient>
    <clipPath id="rounded">
      <rect width="1024" height="1024" rx="192" ry="192"/>
    </clipPath>
    <filter id="letterShadow" x="-20%" y="-20%" width="140%" height="140%">
      <feGaussianBlur in="SourceAlpha" stdDeviation="8"/>
      <feOffset dx="0" dy="6"/>
      <feComponentTransfer><feFuncA type="linear" slope="0.18"/></feComponentTransfer>
      <feMerge><feMergeNode/><feMergeNode in="SourceGraphic"/></feMerge>
    </filter>
  </defs>
  <g clip-path="url(#rounded)">
    <rect width="1024" height="1024" fill="url(#bg)"/>
    <rect width="1024" height="6" fill="rgba(255,255,255,0.18)"/>
    <rect y="1018" width="1024" height="6" fill="rgba(0,0,0,0.12)"/>
    <g filter="url(#letterShadow)">
      <path d="M147 0L1.200 0L2.400-6L12-9.600Q36-19.200 40.200-43.200L40.200-43.200L71.400-210Q77.400-244.200 84-281.100Q90.600-318 96.600-353.400L96.600-353.400Q101.400-378 78-387.600L78-387.600L72-390L73.200-396L224.400-396Q292.200-396 324.600-371.100Q357-346.200 357-303.600L357-303.600Q357-267 331.800-238.800Q306.600-210.600 259.800-196.800L259.800-196.800L321-40.800Q330.600-18 351-8.400L351-8.400L355.200-6L353.400 0L246 0L185.400-182.400L147-182.400Q141-151.200 135-116.400Q129-81.600 122.400-42.600L122.400-42.600Q118.200-18.600 141-9.600L141-9.600L148.200-6L147 0ZM185.400-384L149.400-194.400L179.400-194.400Q228-195.600 252.300-224.100Q276.600-252.600 276.600-301.800L276.600-301.800Q276.600-384 208.200-384L208.200-384L185.400-384Z" fill="#ffffff" transform="translate(106.8, 724.6)"/>
      <path d="M184.200 10.800L184.200 10.800Q123 10.800 85.500-18.900Q48-48.600 48-108.600L48-108.600Q48-121.800 50.100-135.600Q52.200-149.400 54.600-164.400L54.600-164.400L63.600-214.800Q68.400-244.800 75.300-280.800Q82.200-316.800 88.200-349.800L88.200-349.800Q92.400-378 65.400-388.200L65.400-388.200L61.200-390L62.400-396L214.200-396L213-390L207-387.600Q180-378.600 174.600-350.400L174.600-350.400L140.400-168.600Q138-154.800 136.200-140.700Q134.400-126.600 134.400-112.200L134.400-112.200Q134.400-72 154.500-49.200Q174.600-26.400 213-26.400L213-26.400Q258-26.400 285.600-57.300Q313.200-88.200 322.800-140.400L322.800-140.400L362.400-349.800Q367.800-379.200 340.200-388.800L340.200-388.800L336.600-390L337.800-396L418.200-396L417-390L411-387.600Q384-378.600 378.600-350.400L378.600-350.400L339-135Q327-69.600 288-29.400Q249 10.800 184.200 10.800Z" fill="#ffffff" transform="translate(512, 724.6)"/>
    </g>
  </g>
</svg>
