<svg xmlns="http://www.w3.org/2000/svg" width="1024" height="1024" viewBox="0 0 1024 1024">
  <defs>
    <linearGradient id="bg" x1="0" y1="0" x2="1" y2="1">
      <stop offset="0%" stop-color="#3a7fd4"/>
      <stop offset="100%" stop-color="#2860b8"/>
    </linearGradient>
    <clipPath id="rounded">
      <rect width="1024" height="1024" rx="192" ry="192"/>
    </clipPath>
    <filter id="letterShadow" x="-20%" y="-20%" width="140%" height="140%">
      <feGaussianBlur in="SourceAlpha" stdDeviation="8"/>
      <feOffset dx="0" dy="6"/>
      <feComponentTransfer><feFuncA type="linear" slope="0.18"/></feComponentTransfer>
      <feMerge><feMergeNode/><feMergeNode in="SourceGraphic"/></feMerge>
    </filter>
  </defs>
  <g clip-path="url(#rounded)">
    <rect width="1024" height="1024" fill="url(#bg)"/>
    <rect width="1024" height="6" fill="rgba(255,255,255,0.18)"/>
    <rect y="1018" width="1024" height="6" fill="rgba(0,0,0,0.12)"/>
    <g filter="url(#letterShadow)">
      <path d="M94.800 0L44.400 0L44.400-420L180-420Q229.200-420 260.400-403.800Q291.600-387.600 306.600-359.400Q321.600-331.200 321.600-297L321.600-297Q321.600-257.400 300.300-225.600Q279-193.800 234-180.600L234-180.600L325.800 0L266.400 0L181.200-173.400L177.600-173.400L94.800-173.400L94.800 0ZM94.800-377.400L94.800-213L176.400-213Q225-213 247.200-236.400Q269.400-259.800 269.400-296.400L269.400-296.400Q269.400-333.600 247.500-355.500Q225.600-377.400 175.800-377.400L175.800-377.400L94.800-377.400Z" fill="#ffffff" transform="translate(127.3, 718.4)"/>
      <path d="M196.200 7.200L196.200 7.200Q153 7.200 117.900-9.900Q82.800-27 61.800-63Q40.800-99 40.800-154.800L40.800-154.800L40.800-420L91.200-420L91.200-154.200Q91.200-93 120.600-65.400Q150-37.800 197.400-37.800L197.400-37.800Q244.800-37.800 273.600-65.400Q302.400-93 302.400-154.200L302.400-154.200L302.400-420L352.800-420L352.800-154.800Q352.800-99 331.800-63Q310.800-27 275.400-9.900Q240 7.200 196.200 7.200Z" fill="#ffffff" transform="translate(503.1, 718.4)"/>
    </g>
  </g>
</svg>
