<svg xmlns="http://www.w3.org/2000/svg" width="1024" height="1024" viewBox="0 0 1024 1024">
  <defs>
    <linearGradient id="bg" x1="0" y1="0" x2="1" y2="1">
      <stop offset="0%" stop-color="#3a7fd4"/>
      <stop offset="100%" stop-color="#2860b8"/>
    </linearGradient>
    <clipPath id="rounded">
      <rect width="1024" height="1024" rx="192" ry="192"/>
    </clipPath>
    <filter id="letterShadow" x="-20%" y="-20%" width="140%" height="140%">
      <feGaussianBlur in="SourceAlpha" stdDeviation="12"/>
      <feOffset dx="0" dy="8"/>
      <feComponentTransfer><feFuncA type="linear" slope="0.18"/></feComponentTransfer>
      <feMerge><feMergeNode/><feMergeNode in="SourceGraphic"/></feMerge>
    </filter>
  </defs>
  <g clip-path="url(#rounded)">
    <rect width="1024" height="1024" fill="url(#bg)"/>
    <rect width="1024" height="6" fill="rgba(255,255,255,0.18)"/>
    <rect y="1018" width="1024" height="6" fill="rgba(0,0,0,0.12)"/>
    <g transform="translate(177.96, 835.6)" filter="url(#letterShadow)">
      <path d="M580.520 0L355.120 0L356.960-9.200L368-13.800Q399.280-28.520 382.720-56.120L382.720-56.120L230-316.480L487.600-549.240Q502.320-562.120 500.940-575Q499.560-587.880 483-594.320L483-594.320L474.720-598L475.640-607.200L620.080-607.200L618.240-598L608.120-594.320Q576.840-583.280 556.140-571.320Q535.440-559.360 511.520-538.200L511.520-538.200L326.600-370.760L517.040-62.560Q538.200-27.600 574.080-11.960L574.080-11.960L582.360-9.200L580.520 0ZM219.880 0L0 0L1.840-9.200L17.480-15.640Q49.680-27.600 56.120-62.560L56.120-62.560L104.880-322Q115-371.680 125.120-432.860Q135.240-494.040 144.440-547.400L144.440-547.400Q149.960-579.600 119.600-593.400L119.600-593.400L108.560-598L110.400-607.200L333.040-607.200L331.200-598L310.960-591.560Q277.840-579.600 271.400-545.560L271.400-545.560L217.120-249.320Q209.760-211.600 200.100-158.700Q190.440-105.800 182.160-59.800L182.160-59.800Q176.640-26.680 207.920-14.720L207.920-14.720L221.720-9.200L219.880 0Z" fill="#ffffff"/>
    </g>
  </g>
</svg>
