<svg xmlns="http://www.w3.org/2000/svg" width="1024" height="1024" viewBox="0 0 1024 1024">
  <defs>
    <linearGradient id="bg" x1="0" y1="0" x2="1" y2="1">
      <stop offset="0%" stop-color="#a02822"/>
      <stop offset="100%" stop-color="#6f1814"/>
    </linearGradient>
    <clipPath id="rounded">
      <rect width="1024" height="1024" rx="192" ry="192"/>
    </clipPath>
    <filter id="letterShadow" x="-20%" y="-20%" width="140%" height="140%">
      <feGaussianBlur in="SourceAlpha" stdDeviation="8"/>
      <feOffset dx="0" dy="6"/>
      <feComponentTransfer><feFuncA type="linear" slope="0.18"/></feComponentTransfer>
      <feMerge><feMergeNode/><feMergeNode in="SourceGraphic"/></feMerge>
    </filter>
  </defs>
  <g clip-path="url(#rounded)">
    <rect width="1024" height="1024" fill="url(#bg)"/>
    <rect width="1024" height="6" fill="rgba(255,255,255,0.18)"/>
    <rect y="1018" width="1024" height="6" fill="rgba(0,0,0,0.12)"/>
    <g filter="url(#letterShadow)">
      <path d="M184.200 10.800L184.200 10.800Q123 10.800 85.500-18.900Q48-48.600 48-108.600L48-108.600Q48-121.800 50.100-135.600Q52.200-149.400 54.600-164.400L54.600-164.400L63.600-214.800Q68.400-244.800 75.300-280.800Q82.200-316.800 88.200-349.800L88.200-349.800Q92.400-378 65.400-388.200L65.400-388.200L61.200-390L62.400-396L214.200-396L213-390L207-387.600Q180-378.600 174.600-350.400L174.600-350.400L140.400-168.600Q138-154.800 136.200-140.700Q134.400-126.600 134.400-112.200L134.400-112.200Q134.400-72 154.500-49.200Q174.600-26.400 213-26.400L213-26.400Q258-26.400 285.600-57.300Q313.200-88.200 322.800-140.400L322.800-140.400L362.400-349.800Q367.800-379.200 340.200-388.800L340.200-388.800L336.600-390L337.800-396L418.200-396L417-390L411-387.600Q384-378.600 378.600-350.400L378.600-350.400L339-135Q327-69.600 288-29.400Q249 10.800 184.200 10.800Z" fill="#ffffff" transform="translate(149.7, 730)"/>
      <path d="M128.400 10.800L128.400 10.800Q97.200 10.800 66.900 3Q36.600-4.800 15.600-19.200L15.600-19.200L30-107.400L36-107.400L53.400-58.200Q63.600-28.800 80.100-15Q96.600-1.200 128.400-1.200L128.400-1.200Q163.800-1.200 184.500-22.200Q205.200-43.200 205.200-72.600L205.200-72.600Q205.200-88.200 200.400-102Q195.600-115.800 182.100-130.800Q168.600-145.800 142.200-164.400L142.200-164.400Q109.800-187.800 92.400-208.200Q75-228.600 68.400-248.400Q61.800-268.200 61.800-288.600L61.800-288.600Q61.800-324 79.800-350.700Q97.800-377.400 129.900-392.100Q162-406.800 202.800-406.800L202.800-406.800Q232.800-406.800 262.500-398.700Q292.200-390.600 312-376.800L312-376.800L295.200-292.800L289.200-292.800L277.200-332.400Q267.600-364.200 252-379.500Q236.400-394.800 204.600-394.800L204.600-394.800Q173.400-394.800 152.100-376.800Q130.800-358.800 130.800-328.800L130.800-328.800Q130.800-303 144.600-282Q158.400-261 194.400-235.200L194.400-235.200Q241.800-200.400 260.100-172.500Q278.400-144.600 278.400-112.200L278.400-112.200Q278.400-73.800 259.200-46.500Q240-19.200 206.100-4.200Q172.200 10.800 128.400 10.800Z" fill="#ffffff" transform="translate(542.9, 730)"/>
    </g>
  </g>
</svg>
