<svg xmlns="http://www.w3.org/2000/svg" width="1024" height="1024" viewBox="0 0 1024 1024">
  <defs>
    <linearGradient id="bg" x1="0" y1="0" x2="1" y2="1">
      <stop offset="0%" stop-color="#a02822"/>
      <stop offset="100%" stop-color="#6f1814"/>
    </linearGradient>
    <clipPath id="rounded">
      <rect width="1024" height="1024" rx="192" ry="192"/>
    </clipPath>
    <filter id="letterShadow" x="-20%" y="-20%" width="140%" height="140%">
      <feGaussianBlur in="SourceAlpha" stdDeviation="8"/>
      <feOffset dx="0" dy="6"/>
      <feComponentTransfer><feFuncA type="linear" slope="0.18"/></feComponentTransfer>
      <feMerge><feMergeNode/><feMergeNode in="SourceGraphic"/></feMerge>
    </filter>
  </defs>
  <g clip-path="url(#rounded)">
    <rect width="1024" height="1024" fill="url(#bg)"/>
    <rect width="1024" height="6" fill="rgba(255,255,255,0.18)"/>
    <rect y="1018" width="1024" height="6" fill="rgba(0,0,0,0.12)"/>
    <g filter="url(#letterShadow)">
      <path d="M196.200 7.200L196.200 7.200Q153 7.200 117.900-9.900Q82.800-27 61.800-63Q40.800-99 40.800-154.800L40.800-154.800L40.800-420L91.200-420L91.200-154.200Q91.200-93 120.600-65.400Q150-37.800 197.400-37.800L197.400-37.800Q244.800-37.800 273.600-65.400Q302.400-93 302.400-154.200L302.400-154.200L302.400-420L352.800-420L352.800-154.800Q352.800-99 331.800-63Q310.800-27 275.400-9.900Q240 7.200 196.200 7.200Z" fill="#ffffff" transform="translate(131.8, 722)"/>
      <path d="M178.200 7.200L178.200 7.200Q132 7.200 97.800-9.600Q63.600-26.400 45-56.400Q26.400-86.400 26.400-126L26.400-126L79.200-126Q79.200-101.400 90.600-80.700Q102-60 123.900-47.700Q145.800-35.400 178.200-35.400L178.200-35.400Q220.800-35.400 244.200-55.800Q267.600-76.200 267.600-106.800L267.600-106.800Q267.600-132 256.800-147.300Q246-162.600 227.700-172.200Q209.400-181.800 185.700-189Q162-196.200 136.200-205.200L136.200-205.200Q87.600-222 64.200-246.900Q40.800-271.800 40.800-312L40.800-312Q40.200-345.600 56.400-371.700Q72.600-397.800 102.300-412.500Q132-427.200 172.800-427.200L172.800-427.200Q213-427.200 242.700-412.200Q272.400-397.200 288.900-370.800Q305.400-344.400 306-310.800L306-310.800L253.200-310.800Q253.200-328.200 244.200-345.300Q235.200-362.400 216.900-373.200Q198.600-384 171-384L171-384Q136.800-384.600 114.900-366.600Q93-348.600 93-316.800L93-316.800Q93-289.800 108.300-275.400Q123.600-261 151.200-251.700Q178.800-242.400 214.800-230.400L214.800-230.400Q244.800-219.600 268.800-205.200Q292.800-190.800 306.300-168Q319.800-145.200 319.800-109.800L319.800-109.800Q319.800-79.800 304.200-53.100Q288.600-26.400 257.100-9.600Q225.600 7.200 178.200 7.200Z" fill="#ffffff" transform="translate(545.4, 722)"/>
    </g>
  </g>
</svg>
